<?xml version="1.0" encoding="iso-8859-1"?>
<!-- Generator: Adobe Illustrator 19.0.0, SVG Export Plug-In . SVG Version: 6.00 Build 0)  -->
<svg version="1.1" id="Capa_1" xmlns="http://www.w3.org/2000/svg" xmlns:xlink="http://www.w3.org/1999/xlink" x="0px" y="0px"
	 viewBox="0 0 511.999 511.999" style="enable-background:new 0 0 511.999 511.999;" xml:space="preserve">
<circle style="fill:#34ABE0;" cx="255.999" cy="255.999" r="255.999"/>
<path style="fill:#FF525D;" d="M445.13,23.959v404.563c-7.189,7.889-14.869,15.318-22.988,22.246
	c-3.385,2.894-6.854,5.705-10.397,8.422c-5.026,3.866-10.209,7.544-15.527,11.034c-5.622,3.689-11.4,7.158-17.324,10.397
	c-36.477,20.01-78.346,31.378-122.89,31.378s-86.413-11.368-122.89-31.378c-5.925-3.239-11.703-6.708-17.324-10.397
	c-5.319-3.49-10.501-7.178-15.538-11.045c-3.542-2.717-7.001-5.517-10.386-8.411c-8.119-6.928-15.799-14.357-22.988-22.246V23.959
	C66.878,10.731,77.598,0,90.827,0H421.17C434.399,0,445.13,10.731,445.13,23.959z"/>
<path style="fill:#EF4152;" d="M116.46,149.702c-14.666,0-26.598-11.932-26.598-26.599V54.048c0-14.666,11.932-26.599,26.598-26.599
	h279.08c14.666,0,26.599,11.932,26.599,26.599v69.056c0,14.666-11.932,26.599-26.599,26.599H116.46V149.702z"/>
<path style="fill:#F9EED7;" d="M395.54,39.988H116.46c-7.765,0-14.059,6.294-14.059,14.059v69.056
	c0,7.765,6.294,14.059,14.059,14.059h279.08c7.765,0,14.059-6.294,14.059-14.059V54.047C409.6,46.283,403.305,39.988,395.54,39.988z
	"/>
<path style="fill:#EF4152;" d="M110.243,231.204c-11.238,0-20.381-9.143-20.381-20.381v-19.842c0-11.238,9.143-20.381,20.381-20.381
	h37.16c11.238,0,20.381,9.143,20.381,20.381v19.842c0,11.238-9.143,20.381-20.381,20.381H110.243z"/>
<path style="fill:#FFD15C;" d="M147.402,180.99h-37.16c-5.518,0-9.992,4.473-9.992,9.992v19.842c0,5.518,4.473,9.992,9.992,9.992
	h37.16c5.518,0,9.992-4.473,9.992-9.992v-19.842C157.395,185.463,152.921,180.99,147.402,180.99z"/>
<path style="fill:#EF4152;" d="M195.028,231.204c-11.238,0-20.381-9.143-20.381-20.381v-19.842c0-11.238,9.143-20.381,20.381-20.381
	h37.16c11.238,0,20.381,9.143,20.381,20.381v19.842c0,11.238-9.143,20.381-20.381,20.381H195.028z"/>
<path style="fill:#FFD15C;" d="M232.187,180.99h-37.16c-5.518,0-9.992,4.473-9.992,9.992v19.842c0,5.518,4.473,9.992,9.992,9.992
	h37.16c5.518,0,9.992-4.473,9.992-9.992v-19.842C242.18,185.463,237.706,180.99,232.187,180.99z"/>
<path style="fill:#EF4152;" d="M279.813,231.204c-11.238,0-20.381-9.143-20.381-20.381v-19.842c0-11.238,9.143-20.381,20.381-20.381
	h37.16c11.238,0,20.381,9.143,20.381,20.381v19.842c0,11.238-9.143,20.381-20.381,20.381H279.813z"/>
<path style="fill:#FFD15C;" d="M316.972,180.99h-37.16c-5.518,0-9.992,4.473-9.992,9.992v19.842c0,5.518,4.473,9.992,9.992,9.992
	h37.16c5.518,0,9.992-4.473,9.992-9.992v-19.842C326.965,185.463,322.491,180.99,316.972,180.99z"/>
<path style="fill:#EF4152;" d="M364.598,231.204c-11.238,0-20.381-9.143-20.381-20.381v-19.842c0-11.238,9.143-20.381,20.381-20.381
	h37.16c11.238,0,20.381,9.143,20.381,20.381v19.842c0,11.238-9.143,20.381-20.381,20.381H364.598z"/>
<path style="fill:#FFD15C;" d="M401.757,180.99h-37.16c-5.518,0-9.992,4.473-9.992,9.992v19.842c0,5.518,4.473,9.992,9.992,9.992
	h37.16c5.518,0,9.992-4.473,9.992-9.992v-19.842C411.75,185.463,407.276,180.99,401.757,180.99z"/>
<path style="fill:#EF4152;" d="M110.243,314.341c-11.238,0-20.381-9.143-20.381-20.381v-19.843c0-11.238,9.143-20.381,20.381-20.381
	h37.16c11.238,0,20.381,9.143,20.381,20.381v19.842c0,11.238-9.143,20.381-20.381,20.381h-37.16V314.341z"/>
<path style="fill:#FFD15C;" d="M147.402,264.127h-37.16c-5.518,0-9.992,4.473-9.992,9.992v19.842c0,5.518,4.473,9.992,9.992,9.992
	h37.16c5.518,0,9.992-4.473,9.992-9.992v-19.843C157.395,268.6,152.921,264.127,147.402,264.127z"/>
<path style="fill:#EF4152;" d="M195.028,314.341c-11.238,0-20.381-9.143-20.381-20.381v-19.843c0-11.238,9.143-20.381,20.381-20.381
	h37.16c11.238,0,20.381,9.143,20.381,20.381v19.842c0,11.238-9.143,20.381-20.381,20.381h-37.16V314.341z"/>
<path style="fill:#FFD15C;" d="M232.187,264.127h-37.16c-5.518,0-9.992,4.473-9.992,9.992v19.842c0,5.518,4.473,9.992,9.992,9.992
	h37.16c5.518,0,9.992-4.473,9.992-9.992v-19.843C242.18,268.6,237.706,264.127,232.187,264.127z"/>
<path style="fill:#EF4152;" d="M279.813,314.341c-11.238,0-20.381-9.143-20.381-20.381v-19.843c0-11.238,9.143-20.381,20.381-20.381
	h37.16c11.238,0,20.381,9.143,20.381,20.381v19.842c0,11.238-9.143,20.381-20.381,20.381h-37.16V314.341z"/>
<path style="fill:#FFD15C;" d="M316.972,264.127h-37.16c-5.518,0-9.992,4.473-9.992,9.992v19.842c0,5.518,4.473,9.992,9.992,9.992
	h37.16c5.518,0,9.992-4.473,9.992-9.992v-19.843C326.965,268.6,322.491,264.127,316.972,264.127z"/>
<path style="fill:#EF4152;" d="M364.598,314.341c-11.238,0-20.381-9.143-20.381-20.381v-19.843c0-11.238,9.143-20.381,20.381-20.381
	h37.16c11.238,0,20.381,9.143,20.381,20.381v19.842c0,11.238-9.143,20.381-20.381,20.381h-37.16V314.341z"/>
<path style="fill:#FFD15C;" d="M401.757,264.127h-37.16c-5.518,0-9.992,4.473-9.992,9.992v19.842c0,5.518,4.473,9.992,9.992,9.992
	h37.16c5.518,0,9.992-4.473,9.992-9.992v-19.843C411.75,268.6,407.276,264.127,401.757,264.127z"/>
<path style="fill:#EF4152;" d="M110.243,397.478c-11.238,0-20.381-9.143-20.381-20.381v-19.842c0-11.238,9.143-20.381,20.381-20.381
	h37.16c11.238,0,20.381,9.143,20.381,20.381v19.842c0,11.238-9.143,20.381-20.381,20.381H110.243z"/>
<path style="fill:#FFD15C;" d="M147.402,347.264h-37.16c-5.518,0-9.992,4.473-9.992,9.992v19.842c0,5.518,4.473,9.992,9.992,9.992
	h37.16c5.518,0,9.992-4.473,9.992-9.992v-19.842C157.395,351.737,152.921,347.264,147.402,347.264z"/>
<path style="fill:#EF4152;" d="M195.028,397.478c-11.238,0-20.381-9.143-20.381-20.381v-19.842c0-11.238,9.143-20.381,20.381-20.381
	h37.16c11.238,0,20.381,9.143,20.381,20.381v19.842c0,11.238-9.143,20.381-20.381,20.381H195.028z"/>
<path style="fill:#FFD15C;" d="M232.187,347.264h-37.16c-5.518,0-9.992,4.473-9.992,9.992v19.842c0,5.518,4.473,9.992,9.992,9.992
	h37.16c5.518,0,9.992-4.473,9.992-9.992v-19.842C242.18,351.737,237.706,347.264,232.187,347.264z"/>
<path style="fill:#EF4152;" d="M279.813,397.478c-11.238,0-20.381-9.143-20.381-20.381v-19.842c0-11.238,9.143-20.381,20.381-20.381
	h37.16c11.238,0,20.381,9.143,20.381,20.381v19.842c0,11.238-9.143,20.381-20.381,20.381H279.813z"/>
<path style="fill:#FFD15C;" d="M316.972,347.264h-37.16c-5.518,0-9.992,4.473-9.992,9.992v19.842c0,5.518,4.473,9.992,9.992,9.992
	h37.16c5.518,0,9.992-4.473,9.992-9.992v-19.842C326.965,351.737,322.491,347.264,316.972,347.264z"/>
<path style="fill:#EF4152;" d="M364.598,460.774c-11.238,0-20.381-9.143-20.381-20.381v-83.137c0-11.238,9.143-20.381,20.381-20.381
	h37.16c11.238,0,20.381,9.143,20.381,20.381v83.137c0,11.238-9.143,20.381-20.381,20.381H364.598z"/>
<path style="fill:#FFD15C;" d="M401.757,347.264h-37.16c-5.518,0-9.992,4.473-9.992,9.992v19.842c0,5.518,4.473,9.992,9.992,9.992
	h37.16c5.518,0,9.992-4.473,9.992-9.992v-19.842C411.75,351.737,407.276,347.264,401.757,347.264z"/>
<path style="fill:#EF4152;" d="M167.783,440.392v19.843c0,11.233-9.143,20.386-20.375,20.386h-14.294
	c-5.925-3.239-11.703-6.708-17.324-10.397c-5.319-3.49-10.501-7.178-15.538-11.045c-3.542-2.717-7.001-5.517-10.386-8.411v-10.376
	c0-11.233,9.143-20.375,20.375-20.375h37.167C158.64,420.017,167.783,429.16,167.783,440.392z"/>
<path style="fill:#FFD15C;" d="M157.397,440.392v19.843c0,5.517-4.472,9.989-9.989,9.989h-31.619
	c-5.319-3.49-10.501-7.178-15.538-11.045v-18.787c0-5.517,4.472-9.989,9.989-9.989h37.167
	C152.925,430.403,157.397,434.875,157.397,440.392z"/>
<path style="fill:#EF4152;" d="M195.028,480.615c-11.238,0-20.381-9.143-20.381-20.381v-19.843c0-11.238,9.143-20.381,20.381-20.381
	h37.16c11.238,0,20.381,9.143,20.381,20.381v19.842c0,11.238-9.143,20.381-20.381,20.381h-37.16V480.615z"/>
<path style="fill:#FFD15C;" d="M232.187,430.401h-37.16c-5.518,0-9.992,4.473-9.992,9.992v19.842c0,5.518,4.473,9.992,9.992,9.992
	h37.16c5.518,0,9.992-4.473,9.992-9.992v-19.843C242.18,434.874,237.706,430.401,232.187,430.401z"/>
<path style="fill:#EF4152;" d="M279.813,480.615c-11.238,0-20.381-9.143-20.381-20.381v-19.843c0-11.238,9.143-20.381,20.381-20.381
	h37.16c11.238,0,20.381,9.143,20.381,20.381v19.842c0,11.238-9.143,20.381-20.381,20.381h-37.16V480.615z"/>
<path style="fill:#FFD15C;" d="M316.972,430.401h-37.16c-5.518,0-9.992,4.473-9.992,9.992v19.842c0,5.518,4.473,9.992,9.992,9.992
	h37.16c5.518,0,9.992-4.473,9.992-9.992v-19.843C326.965,434.874,322.491,430.401,316.972,430.401z"/>
<path style="fill:#EF4152;" d="M422.142,440.392v10.376c-3.385,2.894-6.854,5.705-10.397,8.422
	c-5.026,3.866-10.209,7.544-15.527,11.034c-5.622,3.689-11.4,7.158-17.324,10.397H364.6c-11.243,0-20.386-9.153-20.386-20.386
	v-19.843c0-7.607,4.2-14.263,10.397-17.753c2.957-1.672,6.363-2.623,9.989-2.623h37.156c3.626,0,7.032,0.951,9.989,2.623
	C417.942,426.129,422.142,432.785,422.142,440.392z"/>
<path style="fill:#FFD15C;" d="M411.745,377.092v82.097c-5.026,3.866-10.209,7.544-15.527,11.034H364.6
	c-5.517,0-9.989-4.472-9.989-9.989v-83.142c0-5.517,4.472-9.989,9.989-9.989h37.156
	C407.273,367.103,411.745,371.575,411.745,377.092z"/>
<path style="fill:#5C5E70;" d="M388.633,107.906h-40.259c-2.156,0-3.904,1.748-3.904,3.904v5.428c0,2.156,1.748,3.904,3.904,3.904
	h40.259c2.156,0,3.904-1.748,3.904-3.904v-5.428C392.536,109.654,390.789,107.906,388.633,107.906z"/>
<g>
</g>
<g>
</g>
<g>
</g>
<g>
</g>
<g>
</g>
<g>
</g>
<g>
</g>
<g>
</g>
<g>
</g>
<g>
</g>
<g>
</g>
<g>
</g>
<g>
</g>
<g>
</g>
<g>
</g>
</svg>
